<?xml version="1.0" encoding="iso-8859-1"?>
<!-- Generator: Adobe Illustrator 16.0.0, SVG Export Plug-In . SVG Version: 6.00 Build 0)  -->
<!DOCTYPE svg PUBLIC "-//W3C//DTD SVG 1.1//EN" "http://www.w3.org/Graphics/SVG/1.1/DTD/svg11.dtd">
<svg version="1.1" id="Capa_1" xmlns="http://www.w3.org/2000/svg" xmlns:xlink="http://www.w3.org/1999/xlink" x="0px" y="0px"
	 width="20px" height="20px" viewBox="0 0 497.25 497.25" style="enable-background:new 0 0 497.25 497.25;"
	 xml:space="preserve">
<g>
	<g style="fill: rgb(134, 1, 175);">
		<path d="M144.788,66.938c0-26.775,21.038-47.812,47.812-47.812s47.812,21.038,47.812,47.812v45.9
			c11.474-11.475,19.125-28.688,19.125-45.9C259.538,30.6,228.938,0,192.601,0s-66.938,30.6-66.938,66.938
			c0,19.125,7.65,34.425,19.125,45.9V66.938z"/>
		<path d="M422.1,172.125c-15.3,0-28.688,13.388-28.688,28.688v42.075v5.737h-19.125v-43.987v-22.95
			c0-15.3-13.388-28.688-28.688-28.688s-28.688,13.388-28.688,28.688v19.125V229.5h-19.125v-28.688v-38.25
			c0-15.3-13.388-28.688-28.688-28.688s-28.687,13.388-28.687,28.688V198.9v49.725h-19.125v-47.812V66.938
			c0-15.3-13.388-28.688-28.688-28.688s-28.688,13.388-28.688,28.688v196.987c-40.163-42.075-91.8-87.975-112.837-66.938
			c-21.038,21.038,32.512,78.413,107.1,204.638c34.425,57.375,76.5,95.625,149.174,95.625c78.412,0,143.438-65.025,143.438-143.438
			V290.7v-89.888C450.788,185.513,437.4,172.125,422.1,172.125z"/>
	</g>
</g>
</svg>
