<?xml version="1.0" encoding="iso-8859-1"?>
<!-- Generator: Adobe Illustrator 16.0.0, SVG Export Plug-In . SVG Version: 6.00 Build 0)  -->
<!DOCTYPE svg PUBLIC "-//W3C//DTD SVG 1.1//EN" "http://www.w3.org/Graphics/SVG/1.1/DTD/svg11.dtd">
<svg version="1.1" id="Capa_1" xmlns="http://www.w3.org/2000/svg" xmlns:xlink="http://www.w3.org/1999/xlink" x="0px" y="0px"
	 width="20px" height="20px" viewBox="0 0 40 40" style="enable-background:new 0 0 40 40;" xml:space="preserve">
<g style="fill: rgb(2, 71, 254);">
	<path d="M20,0C8.973,0,0,8.973,0,20c0,11.027,8.973,20,20,20c11.029,0,20-8.973,20-20C40,8.973,31.029,0,20,0z M31.156,21.867
		c0,1.271-1.027,2.299-2.297,2.299H11.141c-1.269,0-2.298-1.027-2.298-2.299v-3.736c0-1.268,1.029-2.297,2.298-2.297h17.718
		c1.271,0,2.298,1.029,2.298,2.297L31.156,21.867L31.156,21.867z"/>
</g>
</svg>
