<?xml version="1.0" encoding="iso-8859-1"?>
<!-- Generator: Adobe Illustrator 16.0.0, SVG Export Plug-In . SVG Version: 6.00 Build 0)  -->
<!DOCTYPE svg PUBLIC "-//W3C//DTD SVG 1.1//EN" "http://www.w3.org/Graphics/SVG/1.1/DTD/svg11.dtd">
<svg version="1.1" id="Capa_1" xmlns="http://www.w3.org/2000/svg" xmlns:xlink="http://www.w3.org/1999/xlink" x="0px" y="0px"
	 width="20px" height="20px" viewBox="0 0 592.997 592.997" style="enable-background:new 0 0 592.997 592.997;"
	 xml:space="preserve">
<g>
	<g style="fill: rgb(251, 153, 2);">
		<g>
			<path d="M569.077,243.564L406.338,133.013c1.123-2.293,2.111-4.667,2.939-7.118c3.742-11.088,4.098-22.868,1.023-34.065
				c-3.252-11.853-10.074-22.166-19.764-29.909l-56.084-47.432C323.924,5.467,310.504,0.501,296.628,0.5c0,0-0.001,0-0.002,0
				c-13.886-0.001-27.313,4.97-37.849,14.005l-56.636,47.922c-19.513,16.403-26.717,41.855-18.351,64.881
				c0.738,2.034,1.59,4.01,2.54,5.928L23.922,243.564c-11.75,7.981-18.778,21.267-18.767,35.471l0.199,256.658
				c0.024,31.322,25.526,56.804,56.848,56.804h468.594c31.322,0,56.824-25.481,56.848-56.803l0.199-256.659
				C587.854,264.831,580.825,251.546,569.077,243.564z M229.744,95.191l56.854-48.107c2.876-2.497,6.452-3.744,10.027-3.744
				c3.573,0,7.149,1.247,10.024,3.741l56.814,48.049c4.451,3.392,6.277,8.201,6.027,12.852c-0.404,7.519-6.252,14.618-15.299,14.618
				h-25.578c-3.332,0-6.352,1.336-8.559,3.498c-2.27,2.222-3.682,5.316-3.682,8.742v174.457c0,8.155-6.611,14.767-14.766,14.767
				h-10.759c-8.155,0-14.766-6.611-14.766-14.767V134.841c0-3.32-1.327-6.327-3.473-8.532c-2.224-2.285-5.327-3.708-8.767-3.708
				h-24.749c-9.283,0-15.709-6.753-15.871-14.426C223.131,103.784,225.083,99.092,229.744,95.191z M219.789,162.298
				c4.327,1.459,8.833,2.427,13.453,2.867v144.134c0,31.764,25.842,57.605,57.606,57.605h10.758
				c31.766,0,57.607-25.842,57.607-57.605V165.233c4.822-0.403,9.516-1.386,14.008-2.926L532.883,270.77L313.592,445.734
				c-10.064,7.985-24.124,7.985-34.143,0.037L60.112,270.77L219.789,162.298z M544.803,535.66
				c-0.006,7.731-6.275,13.996-14.008,13.996H62.202c-7.732,0-14.001-6.265-14.007-13.996l-0.171-219.731L252.78,479.296
				c12.384,9.824,27.911,15.235,43.719,15.235c15.808,0,31.335-5.411,43.767-15.272l204.709-163.33L544.803,535.66z"/>
			<path d="M530.795,592.997H62.202c-31.598,0-57.324-25.706-57.348-57.304L4.655,279.036c-0.011-14.386,7.086-27.801,18.986-35.885
				l162.05-110.084c-0.893-1.836-1.689-3.713-2.37-5.588c-8.434-23.213-1.172-48.897,18.5-65.434l56.635-47.921
				C269.074,5.017,282.63,0,296.623,0c13.989,0.001,27.539,5.012,38.156,14.109l56.082,47.43
				c9.757,7.797,16.649,18.229,19.923,30.158c3.1,11.292,2.743,23.172-1.032,34.358c-0.768,2.274-1.7,4.555-2.774,6.788
				l162.381,110.308c11.899,8.084,18.996,21.499,18.984,35.885l-0.199,256.659C588.12,567.291,562.393,592.997,530.795,592.997z
				 M296.628,1c-13.76,0-27.084,4.931-37.525,13.885L202.465,62.81c-19.348,16.265-26.493,41.515-18.204,64.328
				c0.716,1.973,1.563,3.95,2.519,5.876l0.193,0.391l-0.36,0.245L24.203,243.978c-11.625,7.897-18.559,21.002-18.548,35.057
				l0.199,256.659c0.024,31.046,25.301,56.304,56.348,56.304h468.594c31.047,0,56.324-25.258,56.348-56.303l0.199-256.66
				c0.012-14.054-6.922-27.159-18.547-35.057L405.699,133.183l0.19-0.39c1.135-2.318,2.116-4.693,2.915-7.059
				c3.711-10.996,4.062-22.674,1.015-33.773c-3.217-11.725-9.992-21.978-19.594-29.65l-56.095-47.44
				C323.692,5.926,310.375,1.001,296.628,1z M530.795,550.156H62.202c-7.993,0-14.501-6.503-14.507-14.496L47.522,314.89
				l205.569,164.016c12.295,9.754,27.711,15.126,43.407,15.126s31.128-5.386,43.457-15.164L545.476,314.89l-0.173,220.771
				C545.297,543.653,538.789,550.156,530.795,550.156z M48.524,316.968l0.17,218.692c0.006,7.441,6.065,13.496,13.507,13.496
				h468.594c7.442,0,13.502-6.055,13.508-13.496l0.171-218.692L340.578,479.649c-12.505,9.92-28.158,15.382-44.079,15.382
				s-31.557-5.449-44.03-15.344L48.524,316.968z M296.482,452.229c-6.254,0-12.414-2.154-17.344-6.065L59.27,270.737
				l160.443-108.993l0.235,0.08c4.309,1.454,8.798,2.41,13.341,2.843l0.453,0.043v144.589c0,31.488,25.618,57.105,57.106,57.105
				h10.758c31.489,0,57.107-25.617,57.107-57.105V164.773l0.458-0.038c4.76-0.398,9.432-1.374,13.888-2.901l0.236-0.081
				l160.43,108.985l-0.53,0.423L313.904,446.125C308.944,450.061,302.757,452.229,296.482,452.229z M60.955,270.802l218.807,174.579
				c4.752,3.771,10.691,5.848,16.721,5.848c6.05,0,12.016-2.091,16.799-5.886l218.76-174.541L373.146,162.861
				c-4.318,1.459-8.834,2.41-13.433,2.83v143.608c0,32.039-26.067,58.105-58.107,58.105h-10.758
				c-32.04,0-58.106-26.066-58.106-58.105V165.618c-4.382-0.451-8.71-1.381-12.877-2.767L60.955,270.802z M301.608,324.564h-10.759
				c-8.418,0-15.266-6.849-15.266-15.267V134.841c0-3.069-1.183-5.976-3.332-8.183c-2.232-2.293-5.219-3.557-8.409-3.557h-24.749
				c-9.004,0-16.195-6.552-16.371-14.916c-0.104-4.924,2.276-9.675,6.7-13.378l56.852-48.105c2.868-2.489,6.544-3.862,10.347-3.862
				h0.002c3.804,0,7.48,1.372,10.352,3.863l56.811,48.045c4.215,3.211,6.483,8.05,6.203,13.261
				c-0.393,7.316-6.063,15.091-15.798,15.091h-25.578c-3.084,0-5.999,1.191-8.209,3.355c-2.277,2.229-3.531,5.207-3.531,8.385
				v174.457C316.874,317.716,310.025,324.564,301.608,324.564z M296.622,43.84c-3.562,0-7.006,1.286-9.697,3.621l-56.858,48.111
				c-4.189,3.506-6.441,7.977-6.344,12.591c0.165,7.815,6.917,13.937,15.371,13.937h24.749c3.462,0,6.703,1.371,9.125,3.859
				c2.331,2.395,3.615,5.549,3.615,8.88v174.457c0,7.866,6.4,14.267,14.266,14.267h10.759c7.866,0,14.266-6.4,14.266-14.267V134.841
				c0-3.449,1.361-6.681,3.832-9.1c2.397-2.347,5.561-3.64,8.908-3.64h25.578c9.119,0,14.431-7.288,14.8-14.145
				c0.262-4.875-1.863-9.404-5.831-12.427l-56.835-48.065c-2.694-2.338-6.138-3.623-9.701-3.623H296.622z"/>
		</g>
	</g>
</g>
</svg>
